<?xml version="1.0" encoding="UTF-8"?>
<svg width="30px" height="28px" viewBox="0 0 30 28" version="1.1" xmlns="http://www.w3.org/2000/svg" xmlns:xlink="http://www.w3.org/1999/xlink">
    <title>Cart@3x</title>
    <g id="DESIGN" stroke="none" stroke-width="1" fill="none" fill-rule="evenodd">
        <g id="6_Navigate-selection" transform="translate(-328.000000, -253.000000)" fill="#FFFFFF" fill-rule="nonzero">
            <g id="Menu" transform="translate(317.000000, 108.000000)">
                <g id="Group-6-Copy-2" transform="translate(3.412879, 145.353474)">
                    <g id="Group" transform="translate(0.200758, 0.000000)">
                        <g id="Cart" transform="translate(7.829545, 0.000000)">
                            <ellipse id="Oval" transform="translate(7.740116, 24.572606) rotate(-1.057000) translate(-7.740116, -24.572606) " cx="7.74011594" cy="24.5726058" rx="1.63946111" ry="1.63364655"></ellipse>
                            <ellipse id="Oval" transform="translate(23.078167, 24.573270) rotate(-88.635063) translate(-23.078167, -24.573270) " cx="23.0781667" cy="24.57327" rx="1.63367041" ry="1.63948241"></ellipse>
                            <path d="M28.4972929,4.71046215 C28.4493061,4.54533824 28.3053458,4.43525564 28.1408196,4.42149531 L5.8132558,2.25424406 C5.62130867,2.23360357 5.38823002,2.10976064 5.29911171,1.93087641 C5.03861204,1.44238486 4.87408594,1.16717835 4.46277067,0.651166149 C3.93491607,0.00443085462 2.94090417,0.0250713427 1.11740648,0.011215361 C0.500433577,0.00443085462 0,0.369079478 0,0.981413959 C0,1.57998811 0.473012559,1.9515169 1.0694197,1.9515169 C1.66582684,1.9515169 2.5295889,1.98591771 2.85178586,2.08223999 C3.17398282,2.17856227 3.43448249,2.7083348 3.53045606,3.1693057 C3.53045606,3.17618586 3.53045606,3.18306602 3.53731131,3.18994619 C3.55102182,3.27250814 3.6744164,3.89172278 3.6744164,3.89860295 L6.41651819,18.4570272 C6.5810443,19.4546508 6.91695177,20.2802703 7.41053009,20.9132453 C7.98637147,21.6563029 8.74730472,22.0278317 9.66590882,22.0278317 L25.8854409,22.0278317 C26.4064403,22.0278317 26.8520318,21.6287822 26.8725976,21.1058899 C26.9000186,20.5554769 26.4612823,20.1013861 25.9128619,20.1013861 L9.65219831,20.1013861 C9.51509322,20.1013861 9.31629084,20.1013861 9.08321219,19.9087416 C8.84327828,19.7023367 8.51422606,19.2276055 8.29485792,18.1198993 L8.00008198,16.4893007 C8.00008198,16.4686602 8.00693723,16.4548999 8.027503,16.4480197 L27.0645447,13.2143432 C27.2427813,13.1868226 27.3798864,13.0423392 27.4004522,12.8565748 L28.4972929,4.88934638 C28.5110034,4.83430507 28.5110034,4.77238361 28.4972929,4.71046215 Z" id="Path"></path>
                        </g>
                    </g>
                </g>
            </g>
        </g>
    </g>
</svg>