<?xml version="1.0" encoding="UTF-8"?>
<svg width="37px" height="37px" viewBox="0 0 37 37" version="1.1" xmlns="http://www.w3.org/2000/svg" xmlns:xlink="http://www.w3.org/1999/xlink">
    <title>Facebook@3x</title>
    <g id="DESIGN" stroke="none" stroke-width="1" fill="none" fill-rule="evenodd">
        <g id="13_Share" transform="translate(-77.000000, -479.000000)">
            <g id="Group-8" transform="translate(20.000000, 97.000000)">
                <g id="Facebook" transform="translate(57.528000, 382.254000)">
                    <path d="M0,17.9218636 C0,8.03541384 8.0145502,0.0208636364 17.901,0.0208636364 C27.7874498,0.0208636364 35.802,8.03541384 35.802,17.9218636 C35.802,27.8083134 27.7874498,35.8228636 17.901,35.8228636 C8.0145502,35.8228636 0,27.8083134 0,17.9218636 Z" id="back" fill="#3B5998"></path>
                    <path d="M19.8742991,28.4788636 L19.8742991,18.6857171 L22.590098,18.6857171 L22.95,15.3109445 L19.8742991,15.3109445 L19.8789133,13.6218384 C19.8789133,12.7416457 19.9629289,12.2700184 21.2329676,12.2700184 L22.9307745,12.2700184 L22.9307745,8.89486364 L20.2145911,8.89486364 C16.9520181,8.89486364 15.8036769,10.5319914 15.8036769,13.2851255 L15.8036769,15.3113267 L13.77,15.3113267 L13.77,18.6860992 L15.8036769,18.6860992 L15.8036769,28.4788636 L19.8742991,28.4788636 Z" id="Shape" fill="#FFFFFF"></path>
                </g>
            </g>
        </g>
    </g>
</svg>