<?xml version="1.0" encoding="UTF-8"?>
<svg width="37px" height="37px" viewBox="0 0 37 37" version="1.1" xmlns="http://www.w3.org/2000/svg" xmlns:xlink="http://www.w3.org/1999/xlink">
    <title>Reddit@3x</title>
    <g id="DESIGN" stroke="none" stroke-width="1" fill="none" fill-rule="evenodd">
        <g id="13_Share" transform="translate(-270.000000, -479.000000)">
            <g id="Group-8" transform="translate(20.000000, 97.000000)">
                <g id="Reddit" transform="translate(250.614000, 382.254000)">
                    <path d="M17.748,35.8645909 C27.5499497,35.8645909 35.496,27.8500402 35.496,17.9635909 C35.496,8.0771416 27.5499497,0.0625909091 17.748,0.0625909091 C7.94605026,0.0625909091 0,8.0771416 0,17.9635909 C0,27.8500402 7.94605026,35.8645909 17.748,35.8645909 Z" id="Oval" fill="#FF5700"></path>
                    <g id="Group" transform="translate(5.202000, 7.100591)" fill="#FFFFFF">
                        <path d="M25.398,10.6272435 C25.398,8.97137003 24.0738406,7.62406443 22.4457711,7.62406443 C21.7011479,7.62406443 21.0217514,7.90855759 20.5019583,8.37302424 C18.6522335,7.1642953 16.2068101,6.37775538 13.4987484,6.24005951 L14.9227681,1.66145181 L18.8080848,2.59214668 C18.8516655,3.92594692 19.9290602,4.99844797 21.2511993,4.99844797 C22.600468,4.99844797 23.6983543,3.88190773 23.6983543,2.50905941 C23.6983543,1.13621108 22.6001794,0.0196708378 21.2511993,0.0196708378 C20.2710674,0.0196708378 19.4262952,0.610089568 19.0355124,1.45799076 L14.6696539,0.413087595 C14.380463,0.344092865 14.0866544,0.513496946 13.99805,0.801806838 L12.3122577,6.22215024 C9.4290075,6.27969478 6.81330211,7.071813 4.8530383,8.33338897 C4.33901741,7.8918227 3.67549466,7.62406443 2.95222889,7.62406443 C1.32415936,7.62435803 0,8.97137003 0,10.6272435 C0,11.6815417 0.537975818,12.6084199 1.34782568,13.1439364 C1.30655393,13.4128691 1.28433068,13.6853248 1.28433068,13.9610102 C1.28433068,18.2313435 6.3812475,21.705742 12.6470495,21.705742 C18.9122744,21.705742 24.0097684,18.2313435 24.0097684,13.9610102 C24.0097684,13.7052893 23.9907199,13.4525043 23.9552204,13.2023617 C24.8167321,12.678589 25.398,11.7220578 25.398,10.6272435 L25.398,10.6272435 Z M21.2511993,1.17702073 C21.9735992,1.17702073 22.5612166,1.77507292 22.5612166,2.50994019 C22.5612166,3.24480746 21.9735992,3.84256605 21.2511993,3.84256605 C20.5285107,3.84256605 19.9408934,3.24480746 19.9408934,2.50994019 C19.9408934,1.77507292 20.5285107,1.17702073 21.2511993,1.17702073 L21.2511993,1.17702073 Z M1.13713773,10.6272435 C1.13713773,9.60935108 1.9513168,8.78082714 2.95194027,8.78082714 C3.28990684,8.78082714 3.60565016,8.87741976 3.87723559,9.04212632 C2.86449034,9.87916451 2.10659093,10.8641744 1.67915414,11.9407858 C1.34465093,11.6057943 1.13713773,11.1410341 1.13713773,10.6272435 L1.13713773,10.6272435 Z M22.8726307,13.9615974 C22.8726307,17.5936561 18.2848283,20.5492729 12.6470495,20.5492729 C7.00840493,20.5492729 2.42146841,17.5939497 2.42146841,13.9615974 C2.42146841,13.8335901 2.42839514,13.7073444 2.43936245,13.5813924 C2.47370748,13.1953155 2.56144602,12.8177528 2.69507414,12.4519339 C3.04169911,11.5036234 3.70666493,10.633409 4.61493205,9.89149549 C4.90556598,9.65397746 5.22044345,9.42967119 5.55754418,9.22033824 C7.39745611,8.07796168 9.89627298,7.37333465 12.6470495,7.37333465 C15.4376548,7.37333465 17.9702395,8.09792611 19.8162123,9.26966214 C20.1541788,9.48369259 20.4681905,9.71328357 20.7573813,9.9560863 C21.6295717,10.6868432 22.2671193,11.5388548 22.6033542,12.4651457 C22.7358278,12.8321389 22.8235664,13.2099952 22.8564683,13.5969529 C22.8665698,13.7182074 22.8726307,13.8391684 22.8726307,13.9615974 L22.8726307,13.9615974 Z M23.6438063,12.0097805 C23.2284913,10.9220125 22.4723236,9.92702043 21.4601555,9.07941284 C21.7441514,8.8912187 22.0824065,8.78082714 22.4460597,8.78082714 C23.4469718,8.78082714 24.2611509,9.60905749 24.2611509,10.6272435 C24.2605737,11.1777334 24.0210243,11.6715595 23.6438063,12.0097805 L23.6438063,12.0097805 Z" id="Shape"></path>
                        <path d="M10.6443595,12.5690782 C10.6443595,11.5937569 9.86683439,10.7755088 8.90777127,10.7755088 C7.94899677,10.7755088 7.14491918,11.5937569 7.14491918,12.5690782 C7.14491918,13.5441058 7.94928539,14.3359305 8.90777127,14.3359305 C9.86683439,14.3347561 10.6443595,13.5441058 10.6443595,12.5690782 L10.6443595,12.5690782 Z" id="Shape"></path>
                        <path d="M16.5164926,10.7749216 C15.5577181,10.7749216 14.751043,11.5928762 14.751043,12.5681974 C14.751043,13.5438122 15.5577181,14.3350497 16.5164926,14.3350497 C17.4755557,14.3350497 18.253658,13.5443994 18.253658,12.5681974 C18.2530808,11.592289 17.4755557,10.7749216 16.5164926,10.7749216 L16.5164926,10.7749216 Z" id="Shape"></path>
                        <path d="M16.0258494,16.8511554 C15.3825296,17.5046969 14.2993626,17.8220727 12.7122762,17.8220727 C12.7073698,17.8220727 12.7030406,17.8235406 12.6984228,17.8235406 C12.6935163,17.8235406 12.6894757,17.8220727 12.6848579,17.8220727 C11.0974829,17.8220727 10.0140273,17.5046969 9.37157339,16.8511554 C9.1496295,16.6250875 8.78943968,16.6250875 8.5674958,16.8511554 C8.3452633,17.0775168 8.3452633,17.4436292 8.5674958,17.6688163 C9.43362532,18.5501873 10.7805852,18.979129 12.6848579,18.979129 C12.6897644,18.979129 12.693805,18.9773674 12.6984228,18.9773674 C12.7030406,18.9773674 12.7073698,18.979129 12.7122762,18.979129 C14.6162604,18.979129 15.9635088,18.5501873 16.8305042,17.6694035 C17.0530253,17.4430421 17.0530253,17.0772232 16.8310814,16.8517425 C16.6085603,16.6256747 16.2483705,16.6256747 16.0258494,16.8511554 L16.0258494,16.8511554 Z" id="Shape"></path>
                    </g>
                </g>
            </g>
        </g>
    </g>
</svg>