<?xml version="1.0" encoding="UTF-8"?>
<svg width="37px" height="37px" viewBox="0 0 37 37" version="1.1" xmlns="http://www.w3.org/2000/svg" xmlns:xlink="http://www.w3.org/1999/xlink">
    <title>Snapchat@3x</title>
    <g id="DESIGN" stroke="none" stroke-width="1" fill="none" fill-rule="evenodd">
        <g id="13_Share" transform="translate(-173.000000, -479.000000)">
            <g id="Group-8" transform="translate(20.000000, 97.000000)">
                <g id="Snapchat" transform="translate(153.918000, 382.254000)">
                    <path d="M0,17.9218636 C0,8.03541384 8.0145502,0.0208636364 17.901,0.0208636364 C27.7874498,0.0208636364 35.802,8.03541384 35.802,17.9218636 C35.802,27.8083134 27.7874498,35.8228636 17.901,35.8228636 C8.0145502,35.8228636 0,27.8083134 0,17.9218636 Z" id="back" fill="#FFE400"></path>
                    <path d="M18.2364158,9.20086364 L18.2355799,9.20086364 C18.2192074,9.20086364 18.2038181,9.20086364 18.1891664,9.20105931 C18.0723459,9.20223336 17.8803001,9.20409226 17.8630425,9.20428794 C17.441879,9.20428794 16.5992079,9.26347941 15.6940456,9.66099172 C15.1765151,9.88812064 14.7110031,10.1952314 14.3104897,10.5738123 C13.8329809,11.0248904 13.4439726,11.5810456 13.154478,12.2270643 C12.730512,13.1729538 12.8311566,14.7661827 12.911987,16.0465285 L12.912282,16.0485341 C12.9209353,16.1856529 12.9300312,16.3288375 12.9383404,16.4683533 C12.8761443,16.496775 12.775303,16.5267621 12.6266716,16.5267621 C12.3875239,16.5267621 12.1031426,16.4506937 11.7816404,16.3008072 C11.6870433,16.2569762 11.5790729,16.234816 11.4599415,16.234816 C11.2685349,16.234816 11.066754,16.2908767 10.8917199,16.3932633 C10.6715015,16.5219191 10.5292125,16.7037495 10.4905673,16.9053429 C10.4650989,17.0386949 10.4663281,17.3022682 10.7605918,17.5695593 C10.9224492,17.7167063 11.1602202,17.8524064 11.4671199,17.9730885 C11.5476552,18.004641 11.6432356,18.0347749 11.7444703,18.0667187 C12.0957676,18.1778128 12.6274582,18.3456524 12.7661088,18.6703249 C12.8363683,18.8349359 12.8061307,19.0515474 12.6764776,19.3133596 C12.6730851,19.3205017 12.6696926,19.327497 12.6665951,19.3348348 C12.6341941,19.4101205 12.3319161,20.0913605 11.7118726,20.8098276 C11.3595428,21.2183955 10.9714686,21.5598471 10.5590568,21.8249858 C10.0556863,22.1486799 9.51101561,22.3603017 8.94033565,22.453834 C8.71623302,22.4904251 8.55619483,22.6890834 8.56868321,22.9148426 C8.57251823,22.9799043 8.5878583,23.0447703 8.61445758,23.1075328 C8.61465425,23.1079242 8.61490008,23.1083155 8.61509675,23.108658 C8.7057113,23.3195459 8.91580138,23.4986857 9.25736369,23.6566927 C9.67474132,23.8495787 10.298964,24.0118416 11.1125284,24.1387852 C11.1536319,24.2165658 11.1963087,24.4120444 11.225858,24.5458856 C11.256784,24.6881408 11.2890375,24.8344073 11.3350085,24.9897727 C11.3846179,25.1581015 11.5132876,25.3592547 11.8438365,25.3592547 C11.9691137,25.3592547 12.1131727,25.3311754 12.2799959,25.298987 C12.5243061,25.2512914 12.8583951,25.1862297 13.2753794,25.1862297 C13.506562,25.1862297 13.7461522,25.206482 13.9873158,25.2463506 C14.4521886,25.3233484 14.8529478,25.6050216 15.3166407,25.9312106 C15.9953403,26.408558 16.7635727,26.9488636 17.9373336,26.9488636 C17.9693413,26.9488636 18.0014473,26.9478363 18.0331599,26.945635 C18.0719526,26.947445 18.1200378,26.9488636 18.170778,26.9488636 C19.3448831,26.9488636 20.1129189,26.4083623 20.790881,25.9314063 L20.7919626,25.9304279 C21.2557538,25.6046302 21.6560705,25.3233484 22.1207959,25.2463506 C22.3618611,25.2065309 22.6014021,25.1862297 22.8326831,25.1862297 C23.2310332,25.1862297 23.5464387,25.2367626 23.8280666,25.2914046 C24.0118524,25.3274087 24.1546821,25.3447259 24.2642751,25.3447259 L24.2749935,25.3449215 L24.2861052,25.3449215 C24.5278588,25.3449215 24.7054987,25.2128903 24.7732998,24.9818479 C24.8183367,24.8297601 24.8504918,24.6869178 24.8822045,24.5422656 C24.9098362,24.4168384 24.9539881,24.2157831 24.9950916,24.1371709 C25.8091968,24.0099826 26.4331736,23.8480622 26.8506004,23.6552252 C27.1913761,23.497952 27.4012203,23.3190078 27.4923757,23.1090004 C27.5197125,23.0460422 27.5356917,22.9807848 27.5392809,22.9143534 C27.5521135,22.6889856 27.3918294,22.4899359 27.1675793,22.4533448 C24.6313059,22.0374391 23.4887168,19.4445592 23.4414674,19.3343945 C23.4384191,19.3271546 23.4349774,19.3199636 23.4313882,19.3129682 C23.3017351,19.0510582 23.2717925,18.8346913 23.3421011,18.6697868 C23.4804567,18.3454078 24.0118032,18.1775682 24.3633464,18.066523 C24.4651218,18.0346281 24.5610464,18.0042986 24.6409426,17.9728929 C24.9870282,17.8368992 25.2343868,17.6893608 25.3975717,17.5218147 C25.5924692,17.3220802 25.630426,17.1307108 25.628066,17.0054792 C25.6221168,16.7024776 25.3893116,16.4332298 25.0189867,16.3013942 C24.8939062,16.2499319 24.7512731,16.2227821 24.6060341,16.2227821 C24.5071595,16.2227821 24.3607405,16.2362836 24.2221391,16.3006604 C23.925417,16.4388065 23.6596208,16.5143368 23.4314374,16.5250988 C23.3100935,16.518984 23.2249856,16.4928126 23.1698696,16.4678152 C23.1768021,16.3496279 23.1844721,16.228212 23.192388,16.1016108 L23.1956822,16.047409 C23.276955,14.7662316 23.3779438,13.1717797 22.9537811,12.2252054 C22.6630574,11.5768875 22.2726724,11.0193137 21.7932461,10.5672572 C21.3911594,10.1884317 20.924074,9.88136988 20.4046751,9.65438771 C19.5007912,9.25981051 18.6581693,9.20086364 18.2364158,9.20086364" fill="#FFFFFF"></path>
                </g>
            </g>
        </g>
    </g>
</svg>