<?xml version="1.0" encoding="UTF-8"?>
<svg width="37px" height="37px" viewBox="0 0 37 37" version="1.1" xmlns="http://www.w3.org/2000/svg" xmlns:xlink="http://www.w3.org/1999/xlink">
    <title>Twitter@3x</title>
    <g id="DESIGN" stroke="none" stroke-width="1" fill="none" fill-rule="evenodd">
        <g id="13_Share" transform="translate(-222.000000, -479.000000)">
            <g id="Group-8" transform="translate(20.000000, 97.000000)">
                <g id="Twitter" transform="translate(202.266000, 382.254000)">
                    <path d="M0,17.9635909 C0,8.07714111 8.0145502,0.0625909091 17.901,0.0625909091 C27.7874498,0.0625909091 35.802,8.07714111 35.802,17.9635909 C35.802,27.8500407 27.7874498,35.8645909 17.901,35.8645909 C8.0145502,35.8645909 0,27.8500407 0,17.9635909 Z" id="back" fill="#55ACEE"></path>
                    <path d="M17.3430863,14.5984281 L17.3808947,15.2204902 L16.7507543,15.1443193 C14.4570435,14.852331 12.4531972,13.8621097 10.7518182,12.1990459 L9.92003298,11.3738615 L9.70578526,11.9832284 C9.25208421,13.3416088 9.54194877,14.7761601 10.4871593,15.7409911 C10.9912716,16.2741871 10.8778463,16.350358 10.0082526,16.0329794 C9.70578526,15.9314182 9.44112631,15.8552474 9.4159207,15.8933328 C9.32770105,15.9821988 9.63016842,17.1374569 9.86962175,17.5944821 C10.1972947,18.2292393 10.8652435,18.8513014 11.5962063,19.2194605 L12.2137438,19.5114488 L11.482781,19.524144 C10.7770238,19.524144 10.7518182,19.5368391 10.8274351,19.8034372 C11.0794912,20.6286215 12.075113,21.5045865 13.18416,21.8854408 L13.965534,22.1520388 L13.2849824,22.5582834 C12.2767579,23.14226 11.092094,23.4723338 9.90743017,23.4977241 C9.34030386,23.5104192 8.874,23.5611998 8.874,23.5992852 C8.874,23.7262367 10.4115424,24.4371647 11.3063417,24.7164579 C13.9907396,25.5416423 17.1792498,25.1861782 19.5737831,23.7770172 C21.275162,22.7741009 22.976541,20.7809632 23.7705178,18.8513014 C24.1990133,17.8229947 24.6275087,15.9441134 24.6275087,15.0427581 C24.6275087,14.4587815 24.6653171,14.3826106 25.3710743,13.6843777 C25.7869669,13.2781331 26.1776539,12.8338031 26.2532708,12.7068516 C26.3792989,12.4656439 26.366696,12.4656439 25.7239529,12.6814613 C24.6527143,13.0623157 24.5014806,13.0115351 25.0307985,12.4402536 C25.4214855,12.034009 25.8877894,11.2976906 25.8877894,11.0818732 C25.8877894,11.0437878 25.6987473,11.1072635 25.4844996,11.2215198 C25.257649,11.3484712 24.7535368,11.5388984 24.3754525,11.6531547 L23.694901,11.8689721 L23.0773634,11.4500324 C22.7370876,11.2215198 22.258181,10.9676169 22.0061248,10.891446 C21.3633817,10.713714 20.3803627,10.7391043 19.8006336,10.9422266 C18.2252828,11.5135081 17.229661,12.9861448 17.3430863,14.5984281 Z" id="Shape" fill="#FFFFFF"></path>
                </g>
            </g>
        </g>
    </g>
</svg>