<?xml version="1.0" encoding="UTF-8"?>
<svg width="37px" height="37px" viewBox="0 0 37 37" version="1.1" xmlns="http://www.w3.org/2000/svg" xmlns:xlink="http://www.w3.org/1999/xlink">
    <title>WhatsApp@3x</title>
    <g id="DESIGN" stroke="none" stroke-width="1" fill="none" fill-rule="evenodd">
        <g id="13_Share" transform="translate(-125.000000, -479.000000)">
            <g id="Group-8" transform="translate(20.000000, 97.000000)">
                <g id="WhatsApp" transform="translate(105.876000, 382.254000)">
                    <ellipse id="Oval" fill="#25D366" cx="17.748" cy="17.9218636" rx="17.748" ry="17.901"></ellipse>
                    <path d="M18.2512012,27.9861684 L18.2468518,27.9861684 C16.4873856,27.985547 14.7585368,27.5334761 13.223022,26.67577 L7.65,28.1728636 L9.14143462,22.5941433 C8.22144469,20.9614305 7.73735125,19.1094151 7.7381402,17.2119792 C7.74044637,11.2761411 12.4565137,6.44686364 18.2511,6.44686364 C21.0634138,6.44810661 23.7029672,7.56927213 25.6877907,9.60423311 C27.6726142,11.6390905 28.7651118,14.3439127 28.7639992,17.2204729 C28.7616728,23.1549643 24.0474766,27.9837446 18.2512012,27.9861684 L18.2512012,27.9861684 Z M13.4812321,24.726792 L13.8003029,24.9207171 C15.1418769,25.7359859 16.6797182,26.1673716 18.247661,26.1679931 L18.2512012,26.1679931 C23.0672532,26.1679931 26.9870344,22.1538083 26.9889562,17.2198514 C26.9898665,14.828881 26.0818626,12.5807494 24.4321417,10.889368 C22.7824209,9.1979867 20.5885248,8.26606448 18.2546402,8.26523583 C13.434866,8.26523583 9.51503419,12.2790166 9.51312249,17.2126007 C9.5124448,18.9033812 9.9744071,20.5499947 10.8490828,21.9746435 L11.0568404,22.3131994 L10.1741235,25.6151893 L13.4812321,24.726792 Z" id="Page-1" fill="#FDFDFD"></path>
                </g>
            </g>
        </g>
    </g>
</svg>