<?xml version="1.0" encoding="UTF-8"?>
<svg width="26px" height="26px" viewBox="0 0 26 26" version="1.1" xmlns="http://www.w3.org/2000/svg" xmlns:xlink="http://www.w3.org/1999/xlink">
    <title>Share icon@3x</title>
    <g id="DESIGN" stroke="none" stroke-width="1" fill="none" fill-rule="evenodd">
        <g id="6_Navigate-selection" transform="translate(-331.000000, -190.000000)" fill="#FFFFFF" fill-rule="nonzero">
            <g id="Menu" transform="translate(317.000000, 108.000000)">
                <g id="Group-6" transform="translate(12.446970, 82.906344)">
                    <g id="Share-icon" transform="translate(2.409091, 0.000000)">
                        <path d="M17.6188488,0.203569855 C17.3754819,-0.00905326843 17.0302925,-0.0598655303 16.7359627,0.0736080112 C16.4416329,0.207081553 16.2524687,0.500214042 16.2521398,0.823349067 L16.2521398,3.33708124 C12.0425665,3.76546268 8.83862811,7.30700435 8.83333333,11.5376174 L8.83333333,13.1859663 C8.83316915,13.5360864 9.05426824,13.8480971 9.38469153,13.964032 C9.71511482,14.079967 10.0827355,13.9745192 10.3014328,13.7010754 L11.3713895,12.3617918 C12.5604712,10.8661969 14.342696,9.96334542 16.2521398,9.88926839 L16.2521398,12.3617918 C16.2524687,12.6849269 16.4416329,12.9780593 16.7359627,13.1115329 C17.0302925,13.2450064 17.3754819,13.1941942 17.6188488,12.981571 L24.2133434,7.21234966 C24.3907769,7.05589411 24.4924242,6.83075736 24.4924242,6.5942188 C24.4924242,6.35768024 24.3907769,6.13254349 24.2133434,5.97608794 L17.6188488,0.203569855 Z" id="Path"></path>
                        <path d="M4.08685065,24.418429 L18.799513,24.418429 C21.055498,24.4157292 22.8836613,22.5892519 22.8863636,20.3353474 L22.8863636,12.9858006 C22.8863636,12.5347959 22.5204146,12.1691843 22.0689935,12.1691843 C21.6175724,12.1691843 21.2516234,12.5347959 21.2516234,12.9858006 L21.2516234,20.3353474 C21.2516234,21.6883616 20.1537762,22.7851964 18.799513,22.7851964 L4.08685065,22.7851964 C2.73258748,22.7851964 1.63474026,21.6883616 1.63474026,20.3353474 L1.63474026,8.08610272 C1.63474026,6.73308851 2.73258748,5.63625378 4.08685065,5.63625378 L8.1737013,5.63625378 C8.62512236,5.63625378 8.99107143,5.2706422 8.99107143,4.81963746 C8.99107143,4.36863273 8.62512236,4.00302115 8.1737013,4.00302115 L4.08685065,4.00302115 C1.83086565,4.00572098 0.00270232074,5.83219829 0,8.08610272 L0,20.3353474 C0.00270232074,22.5892519 1.83086565,24.4157292 4.08685065,24.418429 Z" id="Path"></path>
                    </g>
                </g>
            </g>
        </g>
    </g>
</svg>